<svg width="203" height="78" viewBox="0 0 203 78" fill="none" xmlns="http://www.w3.org/2000/svg">
<path d="M72.4901 51.0863V50.6327L75.1213 50.179V19.8742L72.4901 19.4205V18.9669H84.4668V19.4205L81.7902 19.8742V50.4058H89.2757C90.0015 50.4058 90.6518 50.2093 91.2264 49.8161C91.8011 49.3927 92.3152 48.7273 92.7689 47.82C93.2528 46.8824 93.7065 45.6726 94.1299 44.1906L95.3094 38.4745H96.126L97.5324 51.0863H72.4901Z" fill="#473F30"/>
<path d="M117.354 18.9669C119.986 18.9669 122.193 19.2996 123.978 19.9649C125.762 20.6001 127.093 21.5528 127.97 22.823C128.877 24.063 129.331 25.6055 129.331 27.4504C129.331 30.4748 128.121 32.8036 125.702 34.4368C123.282 36.07 119.865 36.8866 115.449 36.8866C114.451 36.8866 113.483 36.8564 112.545 36.7959C111.608 36.7354 110.761 36.6598 110.005 36.5691V35.571C111.033 35.9642 112.485 36.1608 114.36 36.1608C116.961 36.1608 118.988 35.4349 120.439 33.9832C121.891 32.5012 122.617 30.4143 122.617 27.7226C122.617 25.9684 122.33 24.5016 121.755 23.322C121.18 22.1123 120.333 21.2049 119.214 20.6001C118.126 19.9952 116.78 19.6927 115.177 19.6927C114.572 19.6927 113.937 19.7079 113.271 19.7381C112.606 19.7381 112.001 19.7683 111.457 19.8288C110.943 19.8591 110.549 19.9044 110.277 19.9649V50.0883L112.908 50.6327V51.0863H100.977V50.6327L103.608 50.0883V19.9649L100.977 19.4205V18.9669H117.354Z" fill="#473F30"/>
<path d="M166.035 18.9669V19.4205L163.404 19.9649V50.0883L166.035 50.6327V51.0863H154.33V50.6327L156.735 50.0883V19.9649L154.33 19.4205V18.9669H166.035ZM144.667 18.9669V19.4205L142.308 19.9649V50.0883L144.667 50.6327V51.0863H133.008V50.6327L135.64 50.0883V19.9649L133.008 19.4205V18.9669H144.667ZM157.098 34.9812V36.07H141.855V35.6164L157.098 34.9812Z" fill="#473F30"/>
<path d="M168.635 51.0863V50.6327L171.357 50.0883L183.697 18.9669H187.961L200.029 50.0883L202.66 50.6327V51.0863H189.685V50.7688L192.906 50.1337L182.835 24.0933H182.336L178.026 35.6164C177.361 37.2496 176.846 38.8223 176.484 40.3345C176.151 41.8467 175.984 43.1623 175.984 44.2814C175.984 45.4911 176.196 46.5799 176.62 47.5478C177.043 48.5156 177.708 49.2717 178.616 49.8161C179.523 50.3605 180.703 50.6327 182.154 50.6327V51.0863H168.635ZM176.393 38.0662V37.6125L188.506 36.9774V38.0662H176.393Z" fill="#473F30"/>
<path d="M4.16746 77.9828C1.38915 77.9828 0 77.0857 0 75.2914C0 74.018 0.376229 73.0919 1.12869 72.513C0.955042 73.0919 0.86822 73.6707 0.86822 74.2495C0.86822 75.928 2.02585 76.7673 4.3411 76.7673C8.27704 76.7673 12.8786 74.7994 18.1458 70.8634C16.9303 70.2267 15.8884 69.5322 15.0202 68.7797C10.1582 72.5999 6.59848 74.5099 4.3411 74.5099C3.47288 74.5099 3.03877 74.2495 3.03877 73.7286C3.03877 73.3234 3.2703 73.1208 3.73335 73.1208C3.84911 73.1208 4.02276 73.1497 4.25428 73.2076C4.42793 73.2655 4.57263 73.2944 4.68839 73.2944C6.88788 73.2944 10.1292 71.6159 14.4125 68.2588C12.5024 66.4066 11.5473 64.5254 11.5473 62.6153C11.5473 58.5636 15.2807 54.946 22.7474 51.7626C24.2523 51.1259 25.9019 50.576 27.6962 50.1129C29.5484 49.592 31.5454 49.129 33.687 48.7238C34.4394 47.7398 35.134 46.8137 35.7707 45.9455C36.4074 45.0194 36.9573 44.1512 37.4203 43.3408C37.2467 41.8359 37.1599 40.5915 37.1599 39.6075C37.1599 35.9609 37.8255 34.1377 39.1568 34.1377C39.9671 34.1377 40.6038 35.0638 41.0668 36.916C41.6457 36.1057 42.3402 34.977 43.1506 33.5299C43.9609 32.025 44.8581 30.2017 45.8421 28.0601C47.347 24.9345 48.7651 21.7221 50.0963 18.4229C51.4276 15.1236 52.6721 11.7376 53.8297 8.2647C54.0612 7.628 54.3217 7.16495 54.6111 6.87555C54.669 6.93343 54.6979 7.04919 54.6979 7.22283C54.6979 11.6218 50.6752 21.317 42.6296 36.3082C43.44 35.9031 44.0767 35.7005 44.5397 35.7005C44.887 35.7005 45.0607 35.9031 45.0607 36.3082C45.0607 37.8131 42.7454 40.3599 38.1149 43.9486C37.7097 44.6432 37.2177 45.3956 36.6389 46.206C36.118 46.9584 35.5392 47.7398 34.9025 48.5501C36.1759 48.3186 37.6229 48.145 39.2436 48.0292C41.5588 44.7879 43.7873 41.4307 45.9289 37.9579C48.0705 34.485 50.1253 30.8963 52.0933 27.1919C57.1868 17.6994 59.7336 10.58 59.7336 5.83368C59.7336 3.05538 58.4891 1.46364 56.0002 1.05847C55.4793 0.942704 55.2188 0.769059 55.2188 0.537533C55.2188 0.190245 55.5372 0.0166016 56.1739 0.0166016C58.4313 0.0166016 60.1677 0.740118 61.3832 2.18715C62.5987 3.57631 63.2065 5.39957 63.2065 7.65695C63.2065 12.6926 60.8044 19.6095 56.0002 28.4074C54.2059 31.7067 52.238 34.977 50.0963 38.2183C47.9547 41.4018 45.6974 44.5563 43.3242 47.6819C44.3082 47.5662 45.6974 47.4793 47.4917 47.4215C49.286 47.3057 51.4276 47.1899 53.9165 47.0742C55.5951 47.0163 56.8106 46.9874 57.563 46.9874C58.3155 46.9295 58.6628 46.9005 58.6049 46.9005C58.9522 46.9005 59.1258 46.9874 59.1258 47.161C59.1258 47.7398 58.547 48.0871 57.3894 48.2029C56.2897 48.2607 54.64 48.3765 52.4405 48.5501C50.2989 48.6659 48.331 48.8106 46.5366 48.9843C44.8002 49.1 43.2663 49.2447 41.9351 49.4184C34.5262 58.6794 27.4358 65.8278 20.6637 70.8634C22.1686 71.6159 24.889 72.3394 28.8249 73.034C29.3459 73.0919 29.6063 73.2655 29.6063 73.5549C29.6063 73.8443 29.3169 73.989 28.7381 73.989C26.1913 73.989 23.1815 73.1787 19.7086 71.558C13.6889 75.8412 8.50856 77.9828 4.16746 77.9828ZM72.9306 72.3394C70.7889 72.3394 68.5605 71.4133 66.2452 69.5611C63.9879 67.7089 62.3672 65.683 61.3832 63.4835C60.1098 60.7052 59.4731 56.7114 59.4731 51.5021C59.4731 49.9393 59.7047 47.1321 60.1677 43.0804C60.6308 38.9708 61.1517 33.6457 61.7305 27.1051L62.5119 18.3361C62.5698 17.2363 62.7724 16.6864 63.1197 16.6864C63.7564 16.6864 64.0747 17.3231 64.0747 18.5965V33.1826C64.0747 49.1 65.377 60.0685 67.9817 66.0882C69.5445 69.6769 71.3678 71.4712 73.4515 71.4712C76.1719 71.4712 79.1817 68.8376 82.481 63.5704C82.4231 64.6701 81.7864 66.0303 80.5709 67.651C79.2975 69.3875 78.1688 70.5451 77.1848 71.1239C75.7378 71.9342 74.3197 72.3394 72.9306 72.3394ZM19.1877 70.082C24.9758 65.4515 31.1402 58.7952 37.6808 50.1129C36.8126 50.2866 35.9443 50.4892 35.0761 50.7207C34.2658 50.8943 33.4554 51.0969 32.6451 51.3285C27.6673 57.2902 22.2843 62.7021 16.4962 67.5642C16.7856 68.0272 17.1618 68.4613 17.6249 68.8665C18.0879 69.2717 18.6089 69.6769 19.1877 70.082ZM16.0621 66.9564C18.6667 64.8148 21.2135 62.4706 23.7024 59.9238C26.2492 57.3771 28.767 54.6566 31.2559 51.7626C27.4937 52.9781 24.2234 54.5409 21.4451 56.451C17.5091 59.0556 15.5412 61.7471 15.5412 64.5254C15.5412 65.3358 15.7148 66.1461 16.0621 66.9564Z" fill="#473F30"/>
<path d="M142.284 61.9356L144.495 67.3241H144.697L145.694 64.5053C145.756 64.3392 145.798 64.1471 145.819 63.9291C145.85 63.7007 145.865 63.4619 145.865 63.2127C145.865 63.0154 145.845 62.8181 145.803 62.6209C145.762 62.4132 145.684 62.2264 145.57 62.0602C145.455 61.8837 145.305 61.7436 145.118 61.6397C144.941 61.5255 144.713 61.4684 144.433 61.4684V61.3127H147.968V61.4684L147.002 61.6242L144.23 69.0995H142.891L141.162 64.8635L142.284 61.9356ZM138.39 69.0995L135.307 61.6242L134.434 61.484V61.3127H138.624V61.484L137.674 61.6242L139.994 67.3241H140.197L141.193 64.5053C141.256 64.3392 141.302 64.1471 141.334 63.9291C141.365 63.7007 141.38 63.4619 141.38 63.2127C141.38 63.0154 141.354 62.8181 141.302 62.6209C141.261 62.4132 141.183 62.2264 141.069 62.0602C140.965 61.8837 140.82 61.7436 140.633 61.6397C140.446 61.5255 140.212 61.4684 139.932 61.4684V61.3127H143.467V61.4684L142.502 61.6242L139.729 69.0995H138.39Z" fill="#473F30"/>
<path d="M152.632 61.0791C153.494 61.0791 154.205 61.2504 154.766 61.593C155.326 61.9356 155.747 62.3925 156.027 62.9635C156.307 63.5345 156.448 64.1782 156.448 64.8946H150.545V64.7389L154.423 64.5364C154.423 63.8408 154.361 63.249 154.236 62.761C154.112 62.2731 153.914 61.9045 153.644 61.6553C153.385 61.3958 153.042 61.266 152.617 61.266C152.201 61.266 151.838 61.4009 151.526 61.6709C151.225 61.9408 150.992 62.3509 150.826 62.9012C150.67 63.4411 150.592 64.1367 150.592 64.9881C150.592 65.4553 150.649 65.9069 150.763 66.343C150.888 66.7687 151.064 67.158 151.293 67.511C151.532 67.8536 151.822 68.1288 152.165 68.3364C152.508 68.5337 152.907 68.6323 153.364 68.6323C153.644 68.6323 153.925 68.5908 154.205 68.5077C154.485 68.4247 154.75 68.3053 154.999 68.1495C155.248 67.9938 155.477 67.8069 155.685 67.5889C155.892 67.3605 156.063 67.0957 156.198 66.7946L156.37 66.9504C156.131 67.4383 155.856 67.8381 155.544 68.1495C155.243 68.461 154.916 68.705 154.563 68.8815C154.21 69.0476 153.852 69.1618 153.489 69.2241C153.125 69.2968 152.767 69.3331 152.414 69.3331C151.77 69.3331 151.199 69.2241 150.701 69.0061C150.203 68.788 149.777 68.4921 149.424 68.1184C149.081 67.7342 148.817 67.3034 148.63 66.8258C148.453 66.3378 148.365 65.8342 148.365 65.3151C148.365 64.661 148.469 64.0744 148.676 63.5553C148.894 63.0362 149.19 62.5949 149.564 62.2315C149.948 61.8578 150.4 61.5723 150.919 61.375C151.438 61.1777 152.009 61.0791 152.632 61.0791Z" fill="#473F30"/>
<path d="M166.096 57.4972V68.5389H167.015V68.7102L163.916 69.3331V66.8569L163.791 66.7323C163.687 67.023 163.547 67.3241 163.371 67.6356C163.205 67.9367 163.002 68.217 162.763 68.4766C162.525 68.7258 162.244 68.9334 161.922 69.0995C161.611 69.2553 161.263 69.3331 160.879 69.3331C160.256 69.3331 159.706 69.1618 159.228 68.8192C158.761 68.4766 158.398 68.0094 158.138 67.4176C157.878 66.8154 157.749 66.1405 157.749 65.393C157.749 64.4274 157.904 63.628 158.216 62.9947C158.527 62.3509 158.943 61.8733 159.462 61.5619C159.991 61.24 160.567 61.0791 161.19 61.0791C161.699 61.0791 162.135 61.1622 162.499 61.3283C162.872 61.4944 163.179 61.6968 163.417 61.9356C163.656 62.1641 163.822 62.3977 163.916 62.6365V58.2914H163.013V58.1201L166.096 57.4972ZM162.063 61.6086C161.637 61.6086 161.268 61.7643 160.957 62.0758C160.645 62.3769 160.407 62.7922 160.24 63.3217C160.074 63.8512 159.991 64.4534 159.991 65.1282C159.991 65.8862 160.059 66.5247 160.194 67.0438C160.329 67.5525 160.521 67.9367 160.77 68.1963C161.03 68.4454 161.336 68.57 161.689 68.57C161.959 68.57 162.203 68.5025 162.421 68.3676C162.639 68.2222 162.841 68.0249 163.028 67.7758C163.215 67.5162 163.381 67.2203 163.526 66.8881C163.672 66.5454 163.802 66.1717 163.916 65.7668V63.9914C163.916 63.6695 163.869 63.3632 163.776 63.0725C163.682 62.7714 163.552 62.5171 163.386 62.3094C163.22 62.0914 163.023 61.9201 162.795 61.7955C162.566 61.6709 162.322 61.6086 162.063 61.6086Z" fill="#473F30"/>
<path d="M176.392 57.4972V68.5389H177.311V68.7102L174.212 69.3331V66.8569L174.087 66.7323C173.984 67.023 173.843 67.3241 173.667 67.6356C173.501 67.9367 173.298 68.217 173.06 68.4766C172.821 68.7258 172.54 68.9334 172.219 69.0995C171.907 69.2553 171.559 69.3331 171.175 69.3331C170.552 69.3331 170.002 69.1618 169.524 68.8192C169.057 68.4766 168.694 68.0094 168.434 67.4176C168.175 66.8154 168.045 66.1405 168.045 65.393C168.045 64.4274 168.201 63.628 168.512 62.9947C168.824 62.3509 169.239 61.8733 169.758 61.5619C170.288 61.24 170.864 61.0791 171.487 61.0791C171.995 61.0791 172.431 61.1622 172.795 61.3283C173.169 61.4944 173.475 61.6968 173.714 61.9356C173.952 62.1641 174.119 62.3977 174.212 62.6365V58.2914H173.309V58.1201L176.392 57.4972ZM172.359 61.6086C171.933 61.6086 171.565 61.7643 171.253 62.0758C170.942 62.3769 170.703 62.7922 170.537 63.3217C170.371 63.8512 170.288 64.4534 170.288 65.1282C170.288 65.8862 170.355 66.5247 170.49 67.0438C170.625 67.5525 170.817 67.9367 171.066 68.1963C171.326 68.4454 171.632 68.57 171.985 68.57C172.255 68.57 172.499 68.5025 172.717 68.3676C172.935 68.2222 173.137 68.0249 173.324 67.7758C173.511 67.5162 173.677 67.2203 173.823 66.8881C173.968 66.5454 174.098 66.1717 174.212 65.7668V63.9914C174.212 63.6695 174.165 63.3632 174.072 63.0725C173.978 62.7714 173.849 62.5171 173.683 62.3094C173.516 62.0914 173.319 61.9201 173.091 61.7955C172.862 61.6709 172.618 61.6086 172.359 61.6086Z" fill="#473F30"/>
<path d="M180.148 59.9111C179.847 59.9111 179.577 59.8695 179.338 59.7865C179.109 59.693 178.928 59.5685 178.793 59.4127C178.658 59.2466 178.59 59.0597 178.59 58.8521C178.59 58.6444 178.658 58.4627 178.793 58.307C178.928 58.1409 179.109 58.0163 179.338 57.9332C179.577 57.8398 179.847 57.7931 180.148 57.7931C180.459 57.7931 180.729 57.8398 180.958 57.9332C181.196 58.0163 181.383 58.1409 181.518 58.307C181.653 58.4627 181.721 58.6444 181.721 58.8521C181.721 59.0597 181.653 59.2466 181.518 59.4127C181.383 59.5685 181.196 59.693 180.958 59.7865C180.729 59.8695 180.459 59.9111 180.148 59.9111ZM178.294 69.0995V68.9438L179.135 68.788V61.8111H178.217V61.6397L181.316 61.0791V68.788L182.157 68.9438V69.0995H178.294Z" fill="#473F30"/>
<path d="M192.938 68.9438V69.0995H189.03V68.9438L189.855 68.788V63.5086C189.855 62.9583 189.761 62.543 189.575 62.2627C189.388 61.9824 189.118 61.8422 188.765 61.8422C188.526 61.8422 188.282 61.9356 188.033 62.1225C187.794 62.299 187.56 62.5326 187.332 62.8233C187.114 63.1037 186.917 63.3944 186.74 63.6955C186.564 63.9966 186.424 64.2717 186.32 64.5209V68.788L187.145 68.9438V69.0995H183.298V68.9438L184.139 68.788V61.8111H183.236V61.6397L186.32 61.0791V63.6332L186.444 63.7422C186.704 63.2127 186.995 62.7507 187.316 62.3561C187.649 61.9512 188.017 61.6397 188.422 61.4217C188.827 61.1933 189.274 61.0791 189.761 61.0791C190.187 61.0791 190.545 61.1466 190.836 61.2816C191.127 61.4061 191.355 61.593 191.521 61.8422C191.698 62.081 191.828 62.3717 191.911 62.7143C191.994 63.0466 192.035 63.4151 192.035 63.8201V68.788L192.938 68.9438Z" fill="#473F30"/>
<path d="M197.341 72.4478C196.801 72.4478 196.308 72.3907 195.862 72.2765C195.415 72.1623 195.031 72.0066 194.709 71.8093C194.388 71.6224 194.138 71.4096 193.962 71.1708C193.785 70.932 193.697 70.688 193.697 70.4389C193.697 70.1793 193.759 69.9509 193.884 69.7536C194.009 69.5667 194.18 69.4214 194.398 69.3175C194.616 69.2137 194.855 69.1618 195.114 69.1618C195.54 69.1618 195.877 69.2553 196.127 69.4421C196.376 69.629 196.5 69.873 196.5 70.1741C196.5 70.4129 196.448 70.605 196.345 70.7503C196.251 70.9061 196.127 71.0306 195.971 71.1241C195.826 71.2175 195.675 71.2902 195.519 71.3421C195.363 71.394 195.234 71.4408 195.13 71.4823C195.036 71.5238 194.99 71.5757 194.99 71.638C194.99 71.7315 195.078 71.8249 195.254 71.9183C195.441 72.0118 195.685 72.0845 195.986 72.1364C196.298 72.1987 196.63 72.2298 196.983 72.2298C197.554 72.2298 198.053 72.1416 198.478 71.9651C198.914 71.7989 199.247 71.5601 199.475 71.2487C199.714 70.9476 199.833 70.5998 199.833 70.2053C199.833 69.8522 199.734 69.546 199.537 69.2864C199.35 69.0372 199.054 68.8348 198.65 68.679C198.245 68.5129 197.71 68.3935 197.045 68.3208C196.381 68.2482 195.582 68.2118 194.647 68.2118V67.9782L196.656 66.4053L196.827 66.5299L195.831 67.3397L195.924 67.4799C196.755 67.4799 197.497 67.511 198.151 67.5733C198.816 67.6356 199.392 67.7342 199.88 67.8692C200.368 67.9938 200.768 68.1547 201.079 68.352C201.401 68.5389 201.64 68.7673 201.795 69.0372C201.951 69.3072 202.029 69.6083 202.029 69.9405C202.029 70.5115 201.837 70.9787 201.453 71.3421C201.069 71.7159 200.524 71.991 199.818 72.1675C199.122 72.3544 198.297 72.4478 197.341 72.4478ZM197.84 66.6545C197.289 66.6545 196.77 66.6025 196.282 66.4987C195.794 66.3949 195.363 66.234 194.99 66.0159C194.626 65.7979 194.336 65.528 194.118 65.2061C193.91 64.8739 193.806 64.4897 193.806 64.0537C193.806 63.6176 193.91 63.2179 194.118 62.8545C194.325 62.4911 194.611 62.1796 194.974 61.9201C195.348 61.6501 195.779 61.4425 196.267 61.2971C196.765 61.1518 197.305 61.0791 197.886 61.0791C198.395 61.0791 198.888 61.1518 199.366 61.2971C199.854 61.4321 200.29 61.6294 200.674 61.8889C201.069 62.1485 201.38 62.46 201.609 62.8233C201.837 63.1867 201.951 63.5968 201.951 64.0537C201.951 64.3963 201.868 64.7285 201.702 65.0504C201.546 65.3618 201.302 65.6422 200.97 65.8913C200.638 66.1301 200.212 66.317 199.693 66.452C199.174 66.587 198.556 66.6545 197.84 66.6545ZM197.886 66.4676C198.291 66.4676 198.629 66.3793 198.899 66.2028C199.169 66.0263 199.376 65.7719 199.522 65.4397C199.667 65.0971 199.74 64.6922 199.74 64.225C199.74 63.6851 199.672 63.1919 199.537 62.7455C199.402 62.299 199.195 61.9408 198.914 61.6709C198.644 61.4009 198.302 61.266 197.886 61.266C197.482 61.266 197.139 61.4009 196.859 61.6709C196.578 61.9408 196.371 62.299 196.236 62.7455C196.101 63.1919 196.033 63.6851 196.033 64.225C196.033 64.6818 196.101 65.0815 196.236 65.4241C196.381 65.7564 196.594 66.0159 196.874 66.2028C197.154 66.3793 197.492 66.4676 197.886 66.4676ZM199.117 61.4217L198.198 61.157C198.426 61.1466 198.665 61.1102 198.914 61.0479C199.163 60.9753 199.407 60.887 199.646 60.7832C199.885 60.669 200.108 60.5548 200.316 60.4406C200.534 60.316 200.731 60.2018 200.908 60.098C201.084 59.9837 201.235 59.8851 201.359 59.8021L201.92 61.157H199.117V61.4217Z" fill="#473F30"/>
</svg>
